<svg xmlns="http://www.w3.org/2000/svg" xmlns:xlink="http://www.w3.org/1999/xlink" viewBox="0 0 183.545 215.708"><defs><style>.a{fill:#93d5d5;}.b,.c{fill:#fff;}.b{font-size:17px;font-family:Avenir-Black, Avenir;font-weight:800;}.d{filter:url(#a);}</style><filter id="a" x="0" y="0" width="183.545" height="215.708" filterUnits="userSpaceOnUse"><feOffset dy="3" input="SourceAlpha"/><feGaussianBlur stdDeviation="3" result="b"/><feFlood flood-opacity="0.161"/><feComposite operator="in" in2="b"/><feComposite in="SourceGraphic"/></filter></defs><g transform="translate(-9748.744 -8887.986)"><g transform="translate(9757.744 8893.986)"><g class="d" transform="matrix(1, 0, 0, 1, -9, -6)"><rect class="a" width="165.545" height="197.708" rx="9" transform="translate(9 6)"/></g><g transform="translate(51.443 15.964)"><text class="b" transform="translate(0 17)"><tspan x="0" y="0">events</tspan></text></g></g><path class="c" d="M78.148,53.734H51.31V77.7H78.148ZM72.78,1v9.588H29.839V1H19.1v9.588H13.735C7.831,10.588,3,14.9,3,20.176V87.292c0,5.273,4.831,9.588,10.735,9.588H88.884c5.9,0,10.735-4.315,10.735-9.588V20.176c0-5.273-4.831-9.588-10.735-9.588H83.516V1Zm16.1,86.292H13.735V34.558H88.884Z" transform="translate(9789.112 8963.965)"/></g></svg>