<svg xmlns="http://www.w3.org/2000/svg" xmlns:xlink="http://www.w3.org/1999/xlink" viewBox="0 0 348.855 246.037"><defs><style>.a{fill:#fff;}.b,.c{fill:#93d5d5;}.b{font-size:35px;font-family:Avenir-Black, Avenir;font-weight:800;}.d{fill:none;}.e{filter:url(#a);}</style><filter id="a" x="0" y="0" width="348.855" height="246.037" filterUnits="userSpaceOnUse"><feOffset dy="3" input="SourceAlpha"/><feGaussianBlur stdDeviation="3" result="b"/><feFlood flood-opacity="0.161"/><feComposite operator="in" in2="b"/><feComposite in="SourceGraphic"/></filter></defs><g transform="translate(9 6)"><g class="e" transform="matrix(1, 0, 0, 1, -9, -6)"><rect class="a" width="330.855" height="228.037" rx="18" transform="translate(9 6)"/></g><g transform="translate(84.652 7.205)"><text class="b" transform="translate(0 35)"><tspan x="0" y="0">find vibes</tspan></text></g><g transform="translate(80.706 55.376)"><path class="c" d="M68.525,61.208a7.318,7.318,0,1,0,7.318,7.318A7.383,7.383,0,0,0,68.525,61.208ZM68.525,2a66.525,66.525,0,1,0,66.525,66.525A66.721,66.721,0,0,0,68.525,2ZM83.161,83.161,28.61,108.441,53.89,53.89l54.551-25.28Z" transform="translate(11.305 11.305)"/><path class="d" d="M0,0H159.661V159.661H0Z"/></g></g></svg>