<svg xmlns="http://www.w3.org/2000/svg" xmlns:xlink="http://www.w3.org/1999/xlink" viewBox="0 0 348.855 245.637"><defs><style>.a{fill:#fff;}.b,.c{fill:#93d5d5;}.b{font-size:35px;font-family:Avenir-Black, Avenir;font-weight:800;}.d{filter:url(#a);}</style><filter id="a" x="0" y="0" width="348.855" height="245.637" filterUnits="userSpaceOnUse"><feOffset dy="3" input="SourceAlpha"/><feGaussianBlur stdDeviation="3" result="b"/><feFlood flood-opacity="0.161"/><feComposite operator="in" in2="b"/><feComposite in="SourceGraphic"/></filter></defs><g transform="translate(9 6)"><g class="d" transform="matrix(1, 0, 0, 1, -9, -6)"><rect class="a" width="330.855" height="227.637" rx="18" transform="translate(9 6)"/></g><g transform="translate(101.98 7.321)"><text class="b" transform="translate(0 35)"><tspan x="0" y="0">go bet!</tspan></text></g><path class="c" d="M124.15,50.265c14.07,0,24.83-10.891,24.83-25.132S138.221,0,124.15,0,99.32,10.891,99.32,25.132,110.08,50.265,124.15,50.265Zm-66.214,0c14.07,0,24.83-10.891,24.83-25.132S72.007,0,57.937,0s-24.83,10.891-24.83,25.132S43.866,50.265,57.937,50.265Zm0,16.755C38.9,67.019,0,77.072,0,96.34v20.944H115.874V96.34C115.874,77.072,76.973,67.019,57.937,67.019Zm66.214,0a30.689,30.689,0,0,0-8.277.838c9.932,6.7,16.553,16.755,16.553,28.483v20.944h49.66V96.34C182.087,77.072,143.187,67.019,124.15,67.019Z" transform="translate(77.286 75.962)"/></g></svg>