<svg xmlns="http://www.w3.org/2000/svg" xmlns:xlink="http://www.w3.org/1999/xlink" viewBox="0 0 183.545 215.386"><defs><style>.a{fill:#93d5d5;}.b,.c{fill:#fff;}.c{font-size:20px;font-family:Avenir-Black, Avenir;font-weight:800;}.d{filter:url(#a);}</style><filter id="a" x="0" y="0" width="183.545" height="215.386" filterUnits="userSpaceOnUse"><feOffset dy="3" input="SourceAlpha"/><feGaussianBlur stdDeviation="3" result="b"/><feFlood flood-opacity="0.161"/><feComposite operator="in" in2="b"/><feComposite in="SourceGraphic"/></filter></defs><g transform="translate(9 31)"><g class="d" transform="matrix(1, 0, 0, 1, -9, -31)"><rect class="a" width="165.545" height="197.386" rx="9" transform="translate(9 6)"/></g><path class="b" d="M40.306,33.81H30.979V2H21.653V33.81H12.326V2H3V33.81A18.322,18.322,0,0,0,20.487,51.85V92.885H32.145V51.85A18.322,18.322,0,0,0,49.632,33.81V2H40.306ZM63.622,20.177V56.531H75.28V92.885H86.938V2C74.067,2,63.622,12.179,63.622,20.177Z" transform="translate(38.146 47.823)"/><g transform="translate(29.359 -11.438)"><text class="c" transform="translate(0 20)"><tspan x="0" y="0">restaurants</tspan></text></g></g></svg>