<svg xmlns="http://www.w3.org/2000/svg" xmlns:xlink="http://www.w3.org/1999/xlink" viewBox="0 0 183.545 215.708"><defs><style>.a{fill:#93d5d5;}.b,.c{fill:#fff;}.b{font-size:16px;font-family:Avenir-Black, Avenir;font-weight:800;}.d{filter:url(#a);}</style><filter id="a" x="0" y="0" width="183.545" height="215.708" filterUnits="userSpaceOnUse"><feOffset dy="3" input="SourceAlpha"/><feGaussianBlur stdDeviation="3" result="b"/><feFlood flood-opacity="0.161"/><feComposite operator="in" in2="b"/><feComposite in="SourceGraphic"/></filter></defs><g transform="translate(-9551.689 -8879.987)"><g transform="translate(9533 8424)"><g transform="translate(27.69 461.987)"><g class="d" transform="matrix(1, 0, 0, 1, -9, -6)"><rect class="a" width="165.545" height="197.708" rx="9" transform="translate(9 6)"/></g><g transform="translate(60.568 18.195)"><text class="b" transform="translate(0 16)"><tspan x="0" y="0">shops</tspan></text></g><path class="c" d="M30.761,70.989c-5.456,0-9.871,3.881-9.871,8.624s4.414,8.624,9.871,8.624,9.92-3.881,9.92-8.624S36.217,70.989,30.761,70.989ZM1,2v8.624h9.92L28.777,43.35l-6.7,10.564a7.507,7.507,0,0,0-1.24,4.139c0,4.743,4.464,8.624,9.92,8.624H90.282V58.053H32.844a1.156,1.156,0,0,1-1.24-1.078l.149-.517,4.464-7.028H73.17a10.187,10.187,0,0,0,8.68-4.441L99.607,17.005a3.784,3.784,0,0,0,.6-2.07c0-2.371-2.232-4.312-4.96-4.312H21.882L17.22,2H1ZM80.362,70.989c-5.456,0-9.871,3.881-9.871,8.624s4.414,8.624,9.871,8.624,9.92-3.881,9.92-8.624S85.818,70.989,80.362,70.989Z" transform="translate(28.049 71.123)"/></g></g></g></svg>